<?xml version="1.0" standalone="no"?>
<!DOCTYPE svg PUBLIC "-//W3C//DTD SVG 20010904//EN"
 "http://www.w3.org/TR/2001/REC-SVG-20010904/DTD/svg10.dtd">
<svg version="1.0" xmlns="http://www.w3.org/2000/svg"
 width="481.000000pt" height="481.000000pt" viewBox="0 0 481.000000 481.000000"
 preserveAspectRatio="xMidYMid meet">
<metadata>
Created by potrace 1.11, written by Peter Selinger 2001-2013
</metadata>
<g transform="translate(0.000000,481.000000) scale(0.100000,-0.100000)"
fill="#000000" stroke="none">
<path d="M0 2405 l0 -2405 2405 0 2405 0 0 2405 0 2405 -2405 0 -2405 0 0
-2405z m2070 250 l0 -95 45 0 45 0 0 -55 0 -55 -45 0 -45 0 0 -210 0 -210 -60
0 -60 0 0 210 0 210 -45 0 -45 0 0 55 0 55 45 0 45 0 0 95 0 95 60 0 60 0 0
-95z m1670 1 l0 -95 43 -3 42 -3 3 -52 3 -53 -45 0 -46 0 0 -210 0 -210 -65 0
-65 0 0 210 0 210 -46 0 -45 0 3 53 3 52 43 3 42 3 0 95 0 94 65 0 65 0 0 -94z
m-2329 -119 c147 -76 199 -244 118 -386 -31 -53 -93 -106 -152 -128 -53 -19
-166 -15 -217 8 -55 25 -114 80 -143 134 -31 57 -31 193 0 250 53 98 148 154
265 155 56 0 76 -5 129 -33z"/>
<path d="M1200 2438 c-59 -41 -75 -72 -75 -148 0 -54 4 -75 21 -97 75 -101
207 -97 268 7 31 53 28 135 -6 187 -47 72 -143 95 -208 51z"/>
</g>
</svg>
